<?xml version="1.0" encoding="UTF-8"?>
<svg version="1.1" xmlns="http://www.w3.org/2000/svg" width="449" height="437">
<path d="M0 0 C14.72746662 14.49114401 28.2445897 32.44853747 35.62304688 51.90649414 C35.62304688 52.56649414 35.62304688 53.22649414 35.62304688 53.90649414 C36.28304688 54.23649414 36.94304687 54.56649414 37.62304688 54.90649414 C38.36914062 56.84228516 38.36914062 56.84228516 39.06054688 59.34790039 C39.31707031 60.25556152 39.57359375 61.16322266 39.83789062 62.09838867 C40.09699219 63.02506348 40.35609375 63.95173828 40.62304688 64.90649414 C41.11937131 66.54172884 41.61927975 68.17588071 42.12304688 69.80883789 C45.61630156 81.42594067 48.14596983 92.86625654 49.62304688 104.90649414 C49.75453125 105.92227539 49.88601563 106.93805664 50.02148438 107.98461914 C53.06627775 136.78671859 49.83326328 167.66897532 40.28076172 195.01782227 C39.63051789 196.88504064 39.01133782 198.76298258 38.39257812 200.64086914 C26.00710329 236.96599103 1.30465407 267.95980018 -29.62695312 290.21899414 C-30.1930127 290.62746582 -30.75907227 291.0359375 -31.34228516 291.45678711 C-35.2229709 294.20866948 -39.21635252 296.59915599 -43.37695312 298.90649414 C-43.04695313 299.89649414 -42.71695312 300.88649414 -42.37695312 301.90649414 C-40.66869861 302.74024092 -40.66869861 302.74024092 -38.53710938 303.18774414 C-37.73007568 303.38851563 -36.92304199 303.58928711 -36.09155273 303.79614258 C-35.21635986 303.99755859 -34.34116699 304.19897461 -33.43945312 304.40649414 C-32.54299072 304.62080078 -31.64652832 304.83510742 -30.72290039 305.0559082 C7.42097617 313.95357384 50.49722239 315.40908693 86.18310547 297.00317383 C87.63899289 296.2553866 89.12855466 295.57379238 90.62304688 294.90649414 C91.28304688 295.23649414 91.94304687 295.56649414 92.62304688 295.90649414 C84.77440252 314.0775676 74.11106367 332.49393363 58.61523438 345.24633789 C56.5993191 346.88305936 56.5993191 346.88305936 54.75585938 348.72290039 C30.71527367 371.87482631 -5.1721089 381.5274333 -37.75488281 380.93188477 C-87.46364654 378.74421301 -134.09417945 351.7502954 -173.40576172 323.32788086 C-175.26009238 321.99076008 -177.12272803 320.6665339 -178.99023438 319.34790039 C-185.10787693 315.02288538 -191.14409593 310.60364136 -197.12695312 306.09399414 C-223.08325157 286.57425576 -249.62415736 266.70675994 -281.37695312 257.90649414 C-282.47523438 257.60098633 -283.57351563 257.29547852 -284.70507812 256.98071289 C-304.8301301 252.04305479 -326.15601219 252.61693313 -345.54150391 259.96142578 C-349.29525163 261.36554839 -351.54652812 262.14400793 -355.37695312 260.90649414 C-353.32593793 256.26472292 -350.95324816 253.45099989 -347.37695312 249.90649414 C-346.02577316 248.21224113 -344.69276595 246.50335858 -343.37695312 244.78149414 C-334.22173434 233.54142356 -322.96092151 225.86783835 -310.37695312 218.90649414 C-309.06791016 218.16786133 -309.06791016 218.16786133 -307.73242188 217.41430664 C-292.93448879 209.51225945 -277.61870121 206.55557892 -261.00195312 206.71899414 C-259.14570313 206.71996094 -259.14570313 206.71996094 -257.25195312 206.72094727 C-251.44669917 206.74844584 -245.72022813 206.91496312 -239.93945312 207.46118164 C-225.86392587 208.75838411 -213.03931355 205.22109357 -201.64257812 196.90649414 C-198.05946902 193.74347369 -195.65777046 190.07515015 -193.37695312 185.90649414 C-192.97476563 185.21942383 -192.57257813 184.53235352 -192.15820312 183.82446289 C-191.06898158 181.74583834 -191.06898158 181.74583834 -192.37695312 178.90649414 C-193.20195312 179.12305664 -194.02695313 179.33961914 -194.87695312 179.56274414 C-217.92605195 185.11922332 -238.87819618 180.77341174 -259.06445312 168.59399414 C-264.67239868 164.88801556 -269.58866339 160.61236925 -274.37695312 155.90649414 C-275.29927734 155.00350586 -275.29927734 155.00350586 -276.24023438 154.08227539 C-291.97147925 137.4107722 -297.69410606 115.6817007 -297.33398438 93.22729492 C-296.53017884 74.34825899 -291.68747367 56.80894007 -283.37695312 39.90649414 C-282.83167969 38.78758789 -282.28640625 37.66868164 -281.72460938 36.51586914 C-274.83081523 23.08513607 -265.82620583 11.70846423 -255.37695312 0.90649414 C-254.49136719 -0.0306543 -253.60578125 -0.96780273 -252.69335938 -1.93334961 C-225.44080895 -30.13519061 -186.18159453 -47.8416119 -147.37695312 -52.09350586 C-145.71792969 -52.27719727 -145.71792969 -52.27719727 -144.02539062 -52.46459961 C-90.10377474 -57.22238925 -38.58067284 -37.20501645 0 0 Z M-121.37695312 92.90649414 C-124.61614734 96.57758092 -124.838556 100.04066094 -124.66601562 104.75415039 C-124.26185549 107.76350488 -123.33493592 109.59887155 -121.37695312 111.90649414 C-116.9353274 114.63313206 -112.44050776 114.57123956 -107.37695312 113.90649414 C-104.22357821 112.13272075 -102.86790173 110.70986458 -101.00195312 107.65649414 C-100.13688742 103.85020503 -100.20436003 100.6436618 -101.37695312 96.90649414 C-104.23930393 93.24904589 -106.90001137 91.1692213 -111.37695312 89.90649414 C-115.81033616 89.90649414 -117.64728765 90.60521119 -121.37695312 92.90649414 Z " fill="#5716DD" transform="translate(355.376953125,55.093505859375)"/>
<path d="M0 0 C2.29554336 2.29554336 2.31984545 2.90246265 2.6328125 6.015625 C2.71692383 6.84320313 2.80103516 7.67078125 2.88769531 8.5234375 C2.96600586 9.42320312 3.04431641 10.32296875 3.125 11.25 C3.2084668 12.18585938 3.29193359 13.12171875 3.37792969 14.0859375 C5.76070926 43.26283026 3.35162324 73.35763287 -6.34228516 101.11132812 C-6.99252899 102.9785465 -7.61170906 104.85648844 -8.23046875 106.734375 C-20.61594358 143.05949689 -45.31839281 174.05330604 -76.25 196.3125 C-76.81605957 196.72097168 -77.38211914 197.12944336 -77.96533203 197.55029297 C-81.84601778 200.30217534 -85.83939939 202.69266184 -90 205 C-89.67 205.99 -89.34 206.98 -89 208 C-87.29174548 208.83374678 -87.29174548 208.83374678 -85.16015625 209.28125 C-84.35312256 209.48202148 -83.54608887 209.68279297 -82.71459961 209.88964844 C-81.83940674 210.09106445 -80.96421387 210.29248047 -80.0625 210.5 C-79.1660376 210.71430664 -78.2695752 210.92861328 -77.34594727 211.14941406 C-39.20207071 220.0470797 3.87417551 221.50259279 39.56005859 203.09667969 C41.01594602 202.34889246 42.50550778 201.66729824 44 201 C44.66 201.33 45.32 201.66 46 202 C38.15135565 220.17107346 27.48801679 238.58743949 11.9921875 251.33984375 C9.97627222 252.97656522 9.97627222 252.97656522 8.1328125 254.81640625 C-15.9077732 277.96833217 -51.79515577 287.62093916 -84.37792969 287.02539062 C-134.08669341 284.83771887 -180.71722633 257.84380126 -220.02880859 229.42138672 C-221.88313926 228.08426594 -223.74577491 226.76003976 -225.61328125 225.44140625 C-231.7309238 221.11639124 -237.7671428 216.69714722 -243.75 212.1875 C-269.70629844 192.66776161 -296.24720423 172.8002658 -328 164 C-329.09828125 163.69449219 -330.1965625 163.38898438 -331.328125 163.07421875 C-351.45317698 158.13656065 -372.77905906 158.71043899 -392.16455078 166.05493164 C-395.91829851 167.45905425 -398.16957499 168.23751379 -402 167 C-399.94898481 162.35822878 -397.57629504 159.54450575 -394 156 C-392.64882003 154.30574699 -391.31581283 152.59686444 -390 150.875 C-380.84478122 139.63492942 -369.58396839 131.96134421 -357 125 C-356.12730469 124.50757813 -355.25460937 124.01515625 -354.35546875 123.5078125 C-339.65804505 115.65943699 -324.3250825 112.62974451 -307.8125 112.75 C-306.53415283 112.75386719 -305.25580566 112.75773437 -303.9387207 112.76171875 C-295.147408 112.84226523 -286.63847442 113.32899977 -278 115 C-279.98 115.99 -279.98 115.99 -282 117 C-281.38979004 117.10231934 -280.77958008 117.20463867 -280.15087891 117.31005859 C-273.89487628 118.44718683 -268.24302427 120.19953437 -262.375 122.625 C-261.50673584 122.97908936 -260.63847168 123.33317871 -259.74389648 123.69799805 C-252.35959344 126.75723834 -245.21441292 130.1757053 -238.13720703 133.88427734 C-235.82689308 135.09036996 -233.50585366 136.27411434 -231.18359375 137.45703125 C-220.72377219 142.82035047 -210.52450891 148.54068415 -200.39599609 154.50390625 C-193.10285121 158.7913701 -185.7739078 163.00674046 -178.39044189 167.13635254 C-176.67769497 168.09549082 -174.96842678 169.06083289 -173.25927734 170.02636719 C-167.69877065 173.12406265 -162.21381271 175.8261526 -156.26416016 178.08349609 C-152.78090811 179.49347325 -149.59726906 181.32944228 -146.375 183.25 C-145.75238281 183.61351562 -145.12976563 183.97703125 -144.48828125 184.3515625 C-142.9886141 185.22829099 -141.49374688 186.11322231 -140 187 C-140 187.66 -140 188.32 -140 189 C-138.68 189 -137.36 189 -136 189 C-135.34 189.66 -134.68 190.32 -134 191 C-129.556648 190.39367702 -126.15443071 188.07507396 -123 185 C-111.66242809 169.69790401 -107.00619796 148.77360734 -109 130 C-111.6934101 114.45507883 -119.04118739 102.23216167 -130 91 C-129.67 90.34 -129.34 89.68 -129 89 C-121.92412297 95.63363472 -115.83577291 103.04986321 -112 112 C-112 112.66 -112 113.32 -112 114 C-111.34 114.33 -110.68 114.66 -110 115 C-109.67 115.99 -109.34 116.98 -109 118 C-109.33 118.66 -109.66 119.32 -110 120 C-109.34 120 -108.68 120 -108 120 C-104.84065448 150.16922899 -104.84065448 150.16922899 -109 161 C-109.33 162.19625 -109.66 163.3925 -110 164.625 C-112.44915504 172.89089826 -116.43738913 179.3861535 -121.625 186.1875 C-124.5676181 189.93381356 -124.5676181 189.93381356 -127 194 C-122.4271226 196.04320054 -117.85261631 197.75780411 -113.08984375 199.3046875 C-110.68382248 200.10519551 -108.33812254 201.019497 -106 202 C-106 202.66 -106 203.32 -106 204 C-105.01 203.67 -104.02 203.34 -103 203 C-102.05125 203.350625 -101.1025 203.70125 -100.125 204.0625 C-96.28229141 205.21531258 -95.54164455 204.73314521 -92 203 C-89.5567185 201.5281394 -87.18323832 199.96044674 -84.8125 198.375 C-78.27013037 194 -78.27013037 194 -76 194 C-75.67 193.01 -75.34 192.02 -75 191 C-72.13149298 189.06181958 -69.11650396 187.50053894 -66 186 C-66 185.34 -66 184.68 -66 184 C-64.35648543 182.63823078 -62.68477344 181.31037934 -61 180 C-60.13375 179.113125 -59.2675 178.22625 -58.375 177.3125 C-56 175 -56 175 -53 174 C-53 173.34 -53 172.68 -53 172 C-52.34 172 -51.68 172 -51 172 C-50.71125 171.401875 -50.4225 170.80375 -50.125 170.1875 C-49 168 -49 168 -47 165 C-46.34 165 -45.68 165 -45 165 C-45 164.01 -45 163.02 -45 162 C-43.3563186 160.31066078 -41.6857124 158.64740076 -40 157 C-39.319375 155.96875 -38.63875 154.9375 -37.9375 153.875 C-36 151 -36 151 -33.9375 149.5625 C-31.02759856 147.21580529 -30.30985606 144.47111855 -29 141 C-28.34 141 -27.68 141 -27 141 C-26.9071875 139.9790625 -26.9071875 139.9790625 -26.8125 138.9375 C-25.86890755 135.52605039 -24.3334272 133.48655226 -22.15625 130.74609375 C-20.89480878 128.84114705 -20.42938641 127.22988168 -20 125 C-19.34 125 -18.68 125 -18 125 C-17.80664062 124.21753906 -17.61328125 123.43507813 -17.4140625 122.62890625 C-17.02347656 121.11103516 -17.02347656 121.11103516 -16.625 119.5625 C-16.36976563 118.55316406 -16.11453125 117.54382813 -15.8515625 116.50390625 C-15 114 -15 114 -13 113 C-12.31270746 110.88153715 -12.31270746 110.88153715 -11.875 108.4375 C-11.70742188 107.61121094 -11.53984375 106.78492188 -11.3671875 105.93359375 C-11.24601562 105.29550781 -11.12484375 104.65742188 -11 104 C-10.34 104 -9.68 104 -9 104 C-8.855625 102.989375 -8.71125 101.97875 -8.5625 100.9375 C-8.376875 99.638125 -8.19125 98.33875 -8 97 C-7.835 95.7625 -7.67 94.525 -7.5 93.25 C-7 90 -7 90 -6 87 C-5.65179959 85.33637583 -5.31595508 83.67004829 -5 82 C-4.34 82 -3.68 82 -3 82 C-3.33 81.01 -3.66 80.02 -4 79 C-3.37554854 77.31706132 -2.70299449 75.65167217 -2 74 C3.45603758 50.07188746 1.15462151 24.27468902 0 0 Z " fill="#460FCE" transform="translate(402,149)"/>
<path d="M0 0 C1.64186279 0.01135986 1.64186279 0.01135986 3.31689453 0.02294922 C11.39398443 0.18764059 18.16063009 1.00320301 25.5625 4.4375 C26.51898438 4.87320313 27.47546875 5.30890625 28.4609375 5.7578125 C42.85669534 12.97541164 50.24785146 23.5699389 55.5625 38.4375 C56.03623047 39.88962891 56.03623047 39.88962891 56.51953125 41.37109375 C58.82276909 48.69307419 58.82276909 48.69307419 64.5625 53.4375 C75.57932875 58.15167789 85.91997512 58.66458393 97.7578125 58.8671875 C103.73465326 59.04694211 108.32963673 59.43713546 113.5625 62.4375 C115.8363067 65.84821005 115.73778065 67.42496092 115.0859375 71.38671875 C113.54191826 77.43604788 109.43769653 80.84495471 104.32128906 83.96923828 C93.57115664 89.69059195 81.51195143 90.51023504 69.62646484 91.64648438 C59.29753766 92.65644451 49.27449932 93.72550068 41.5625 101.4375 C37.81813297 106.73126029 37.90526413 112.19375923 38.5625 118.4375 C41.04231662 126.56578782 46.64693528 132.49644389 52.375 138.5625 C66.55799486 154.04845071 73.41591028 171.09071167 72.69873047 192.19628906 C71.80162232 206.95516508 66.65066099 225.36426054 55.25390625 235.48828125 C49.51405325 239.58817625 49.51405325 239.58817625 46.29296875 239.078125 C45.72191406 238.86671875 45.15085937 238.6553125 44.5625 238.4375 C44.5625 237.7775 44.5625 237.1175 44.5625 236.4375 C43.2425 236.4375 41.9225 236.4375 40.5625 236.4375 C40.5625 235.7775 40.5625 235.1175 40.5625 234.4375 C39.88574219 234.18742188 39.20898438 233.93734375 38.51171875 233.6796875 C34.35654505 231.92956136 30.4639302 229.72522729 26.52929688 227.53515625 C23.00743152 225.61546591 19.51105547 223.99507606 15.7578125 222.57421875 C10.01816677 220.33488934 4.8916914 217.2976201 -0.375 214.125 C-12.59337991 206.88035495 -24.97987627 199.97148549 -37.41845703 193.11376953 C-40.08100547 191.6354372 -42.72957687 190.13657412 -45.37109375 188.62109375 C-64.18562852 177.86082485 -84.70084259 167.10481877 -106.4375 164.4375 C-106.4375 164.1075 -106.4375 163.7775 -106.4375 163.4375 C-104.4575 163.1075 -102.4775 162.7775 -100.4375 162.4375 C-100.4375 162.1075 -100.4375 161.7775 -100.4375 161.4375 C-99.47070312 161.33953125 -98.50390625 161.2415625 -97.5078125 161.140625 C-84.64772372 159.6636247 -72.40235122 156.59004164 -63.58203125 146.265625 C-60.31895255 141.59257402 -58.20549927 136.83971999 -56.4375 131.4375 C-55.7775 131.4375 -55.1175 131.4375 -54.4375 131.4375 C-53.916559 121.39491521 -54.77010828 114.52095982 -59.36376953 105.6484375 C-68.64119954 87.72724513 -73.78896828 68.32706632 -67.52734375 48.21484375 C-59.63864593 28.11138801 -47.17309076 14.5797203 -27.8125 4.7265625 C-18.62002191 1.21554656 -9.80741389 -0.0956895 0 0 Z M12.5625 46.4375 C9.32330578 50.10858678 9.10089712 53.5716668 9.2734375 58.28515625 C9.67759763 61.29451074 10.6045172 63.12987741 12.5625 65.4375 C17.00412572 68.16413792 21.49894537 68.10224542 26.5625 67.4375 C29.71587491 65.66372661 31.0715514 64.24087044 32.9375 61.1875 C33.80256571 57.38121089 33.73509309 54.17466766 32.5625 50.4375 C29.7001492 46.78005175 27.03944175 44.70022716 22.5625 43.4375 C18.12911697 43.4375 16.29216548 44.13621705 12.5625 46.4375 Z " fill="#892EFB" transform="translate(221.4375,101.5625)"/>
<path d="M0 0 C2.29554336 2.29554336 2.31984545 2.90246265 2.6328125 6.015625 C2.71692383 6.84320313 2.80103516 7.67078125 2.88769531 8.5234375 C2.96600586 9.42320312 3.04431641 10.32296875 3.125 11.25 C3.2084668 12.18585938 3.29193359 13.12171875 3.37792969 14.0859375 C5.76070926 43.26283026 3.35162324 73.35763287 -6.34228516 101.11132812 C-6.99252899 102.9785465 -7.61170906 104.85648844 -8.23046875 106.734375 C-20.61594358 143.05949689 -45.31839281 174.05330604 -76.25 196.3125 C-77.09908936 196.92520752 -77.09908936 196.92520752 -77.96533203 197.55029297 C-81.84601778 200.30217534 -85.83939939 202.69266184 -90 205 C-89.67 205.99 -89.34 206.98 -89 208 C-86.20742575 208.96942667 -83.55690531 209.71021202 -80.6875 210.375 C-79.82479492 210.58342529 -78.96208984 210.79185059 -78.07324219 211.0065918 C-65.82545823 213.8696129 -53.39844791 215.91075135 -41 218 C-41 218.33 -41 218.66 -41 219 C-48.58031711 219.28104989 -55.56343412 218.23461961 -63 216.8125 C-64.18956299 216.58836426 -65.37912598 216.36422852 -66.60473633 216.13330078 C-78.79992646 213.76451631 -90.3926176 210.42795403 -102 206 C-102 205.34 -102 204.68 -102 204 C-101.01515625 204.26554688 -100.0303125 204.53109375 -99.015625 204.8046875 C-93.93486281 205.52868332 -90.77587897 202.92659115 -86.75 200.125 C-85.35052511 199.18776043 -83.94954234 198.25276749 -82.546875 197.3203125 C-81.93682617 196.90023926 -81.32677734 196.48016602 -80.69824219 196.04736328 C-79 195 -79 195 -76 194 C-75.67 193.01 -75.34 192.02 -75 191 C-72.13149298 189.06181958 -69.11650396 187.50053894 -66 186 C-66 185.34 -66 184.68 -66 184 C-64.35648543 182.63823078 -62.68477344 181.31037934 -61 180 C-60.13375 179.113125 -59.2675 178.22625 -58.375 177.3125 C-56 175 -56 175 -53 174 C-53 173.34 -53 172.68 -53 172 C-52.34 172 -51.68 172 -51 172 C-50.71125 171.401875 -50.4225 170.80375 -50.125 170.1875 C-49 168 -49 168 -47 165 C-46.34 165 -45.68 165 -45 165 C-45 164.01 -45 163.02 -45 162 C-43.3563186 160.31066078 -41.6857124 158.64740076 -40 157 C-39.319375 155.96875 -38.63875 154.9375 -37.9375 153.875 C-36 151 -36 151 -33.9375 149.5625 C-31.02759856 147.21580529 -30.30985606 144.47111855 -29 141 C-28.34 141 -27.68 141 -27 141 C-26.938125 140.319375 -26.87625 139.63875 -26.8125 138.9375 C-25.86890755 135.52605039 -24.3334272 133.48655226 -22.15625 130.74609375 C-20.89480878 128.84114705 -20.42938641 127.22988168 -20 125 C-19.34 125 -18.68 125 -18 125 C-17.80664062 124.21753906 -17.61328125 123.43507813 -17.4140625 122.62890625 C-17.15367187 121.61699219 -16.89328125 120.60507812 -16.625 119.5625 C-16.24214844 118.04849609 -16.24214844 118.04849609 -15.8515625 116.50390625 C-15 114 -15 114 -13 113 C-12.31270746 110.88153715 -12.31270746 110.88153715 -11.875 108.4375 C-11.70742188 107.61121094 -11.53984375 106.78492188 -11.3671875 105.93359375 C-11.24601562 105.29550781 -11.12484375 104.65742188 -11 104 C-10.34 104 -9.68 104 -9 104 C-8.855625 102.989375 -8.71125 101.97875 -8.5625 100.9375 C-8.2840625 98.9884375 -8.2840625 98.9884375 -8 97 C-7.835 95.7625 -7.67 94.525 -7.5 93.25 C-7 90 -7 90 -6 87 C-5.65179959 85.33637583 -5.31595508 83.67004829 -5 82 C-4.34 82 -3.68 82 -3 82 C-3.33 81.01 -3.66 80.02 -4 79 C-3.37554854 77.31706132 -2.70299449 75.65167217 -2 74 C3.45603758 50.07188746 1.15462151 24.27468902 0 0 Z " fill="#360DA5" transform="translate(402,149)"/>
<path d="M0 0 C3.92360501 0.6244217 6.48225588 2.5347657 9.6875 4.8125 C10.25073975 5.20920898 10.81397949 5.60591797 11.39428711 6.01464844 C13.91880879 7.79553644 16.4311559 9.59329504 18.94433594 11.39013672 C39.38775814 25.9961725 60.4172058 40.21770621 82.8125 51.6875 C83.43995117 52.01468018 84.06740234 52.34186035 84.71386719 52.67895508 C87.80321525 54.21068025 90.32772601 55.04526226 93.76171875 55.51953125 C97.3119505 56.04628457 97.74457142 56.4533485 100 59 C106.43225058 62.33837567 111.73672283 64.14526554 119 64 C120.27230469 64.91845703 120.27230469 64.91845703 121.5703125 65.85546875 C125.67392482 68.73865941 130.13926224 69.37792646 135 70.25 C135.8765625 70.42273438 136.753125 70.59546875 137.65625 70.7734375 C142.18526683 71.63285937 146.37565229 72.08670652 151 72 C151.66 72.33 152.32 72.66 153 73 C155.21833122 73.09796813 157.43966373 73.13077788 159.66015625 73.1328125 C160.6560099 73.13424759 160.6560099 73.13424759 161.67198181 73.13571167 C163.08169652 73.13639295 164.49141435 73.1345423 165.90112305 73.13037109 C168.02985978 73.12508111 170.15837975 73.1302868 172.28710938 73.13671875 C181.32176187 73.14223088 190.05610057 73.03685591 198.8125 70.5625 C199.70582031 70.31628906 200.59914063 70.07007813 201.51953125 69.81640625 C203.82514525 69.05755062 205.84331205 68.09921515 208 67 C208.7425 66.87625 209.485 66.7525 210.25 66.625 C213.52966364 65.8796219 216.1088527 64.46911339 219.0703125 62.91015625 C221 62 221 62 223.875 61.4375 C226.38800367 61.17968681 226.38800367 61.17968681 228 58 C228.969375 57.773125 229.93875 57.54625 230.9375 57.3125 C236.82232469 55.82606395 241.31141789 51.6775671 246 48 C247.40378906 46.90558594 247.40378906 46.90558594 248.8359375 45.7890625 C261.29031548 35.84649184 273.77466255 23.45067491 281 9 C281.66 9.33 282.32 9.66 283 10 C277.02097266 19.93941201 270.28564529 28.86500281 262 37 C260.9171875 38.11375 260.9171875 38.11375 259.8125 39.25 C258.884375 40.1575 257.95625 41.065 257 42 C256.3709375 42.63679688 255.741875 43.27359375 255.09375 43.9296875 C230.58826954 67.5120163 194.96346642 77.63480527 161.62207031 77.02539062 C111.92561208 74.83826043 65.30300845 47.85512881 25.99755859 19.44335938 C23.45263669 17.60449623 20.89737149 15.78036065 18.34130859 13.95703125 C17.17539513 13.12492172 16.01032426 12.29163005 14.84619141 11.45703125 C10.49975777 8.34240627 6.11021985 5.29396051 1.6953125 2.27734375 C1.13585937 1.85582031 0.57640625 1.43429687 0 1 C0 0.67 0 0.34 0 0 Z " fill="#2F0C9A" transform="translate(156,359)"/>
<path d="M0 0 C1.64186279 0.01135986 1.64186279 0.01135986 3.31689453 0.02294922 C15.69156102 0.27526791 26.21287945 3.36808706 36.5625 10.4375 C37.5525 11.9225 37.5525 11.9225 38.5625 13.4375 C35.65460673 12.38008427 33.19673042 11.20889401 30.5625 9.5625 C18.48066693 2.45710478 1.42129794 0.15611544 -12.30078125 3.0390625 C-13.71145707 3.5351794 -15.10978758 4.06887435 -16.48828125 4.6484375 C-18.70184503 5.54450941 -20.84464929 5.98651079 -23.1875 6.4375 C-26.81683642 7.20849893 -29.35493395 8.30341581 -32.4375 10.4375 C-33.74917094 11.23053954 -35.06175261 12.02207374 -36.375 12.8125 C-45.12065068 18.30319047 -52.87348926 25.70260142 -58.4375 34.4375 C-58.80079115 36.09789406 -59.13531951 37.76490446 -59.4375 39.4375 C-60.5234375 41.40234375 -60.5234375 41.40234375 -61.8125 43.375 C-67.32501513 53.00991775 -68.275011 64.53375103 -67.4375 75.4375 C-67.1075 76.4275 -66.7775 77.4175 -66.4375 78.4375 C-66.21741948 80.16282263 -66.03246906 81.89284033 -65.875 83.625 C-65.79121094 84.52605469 -65.70742187 85.42710937 -65.62109375 86.35546875 C-65.56050781 87.04253906 -65.49992188 87.72960937 -65.4375 88.4375 C-64.7775 88.4375 -64.1175 88.4375 -63.4375 88.4375 C-62.98177083 90.45572917 -62.52604167 92.47395833 -62.0703125 94.4921875 C-61.53275572 96.64469964 -61.53275572 96.64469964 -59.4375 98.4375 C-58.69577135 100.05581705 -57.96486566 101.68033413 -57.30078125 103.33203125 C-56.69621358 104.80651982 -56.04321974 106.26164539 -55.35546875 107.69921875 C-52.3072604 114.38804344 -51.98649811 120.14630285 -52.4375 127.4375 C-52.7675 127.4375 -53.0975 127.4375 -53.4375 127.4375 C-53.51226562 126.56609375 -53.58703125 125.6946875 -53.6640625 124.796875 C-54.65285578 115.83957121 -57.01748157 109.23240935 -61.4375 101.4375 C-69.94661582 85.94045108 -72.13820714 68.32772429 -68.375 50.9375 C-62.09717871 30.77325373 -48.97623754 15.94821533 -30.4375 6.0625 C-20.84371877 1.17995062 -10.62934822 -0.10370899 0 0 Z " fill="#D660FE" transform="translate(221.4375,101.5625)"/>
<path d="M0 0 C2.29554336 2.29554336 2.31984545 2.90246265 2.6328125 6.015625 C2.71692383 6.84320313 2.80103516 7.67078125 2.88769531 8.5234375 C3.00516113 9.87308594 3.00516113 9.87308594 3.125 11.25 C3.2084668 12.18585938 3.29193359 13.12171875 3.37792969 14.0859375 C5.76070926 43.26283026 3.35162324 73.35763287 -6.34228516 101.11132812 C-6.99252899 102.9785465 -7.61170906 104.85648844 -8.23046875 106.734375 C-11.15832822 115.31322339 -15.00784082 123.36786802 -19.125 131.4375 C-19.64006104 132.46367432 -20.15512207 133.48984863 -20.68579102 134.54711914 C-21.18393311 135.49965576 -21.6820752 136.45219238 -22.1953125 137.43359375 C-22.86071045 138.71834595 -22.86071045 138.71834595 -23.53955078 140.02905273 C-25 142 -25 142 -27.17529297 142.78540039 C-27.77744629 142.85621826 -28.37959961 142.92703613 -29 143 C-29 142.34 -29 141.68 -29 141 C-28.34 141 -27.68 141 -27 141 C-26.938125 140.319375 -26.87625 139.63875 -26.8125 138.9375 C-25.86890755 135.52605039 -24.3334272 133.48655226 -22.15625 130.74609375 C-20.89480878 128.84114705 -20.42938641 127.22988168 -20 125 C-19.34 125 -18.68 125 -18 125 C-17.80664062 124.21753906 -17.61328125 123.43507813 -17.4140625 122.62890625 C-17.15367187 121.61699219 -16.89328125 120.60507812 -16.625 119.5625 C-16.36976563 118.55316406 -16.11453125 117.54382813 -15.8515625 116.50390625 C-15 114 -15 114 -13 113 C-12.31270746 110.88153715 -12.31270746 110.88153715 -11.875 108.4375 C-11.70742188 107.61121094 -11.53984375 106.78492188 -11.3671875 105.93359375 C-11.24601562 105.29550781 -11.12484375 104.65742188 -11 104 C-10.34 104 -9.68 104 -9 104 C-8.855625 102.989375 -8.71125 101.97875 -8.5625 100.9375 C-8.376875 99.638125 -8.19125 98.33875 -8 97 C-7.835 95.7625 -7.67 94.525 -7.5 93.25 C-7 90 -7 90 -6 87 C-5.65179959 85.33637583 -5.31595508 83.67004829 -5 82 C-4.34 82 -3.68 82 -3 82 C-3.33 81.01 -3.66 80.02 -4 79 C-3.37554854 77.31706132 -2.70299449 75.65167217 -2 74 C3.45603758 50.07188746 1.15462151 24.27468902 0 0 Z " fill="#3910AB" transform="translate(402,149)"/>
<path d="M0 0 C5.61017393 0.51730175 9.87638547 2.00329124 14.875 4.5625 C15.57681396 4.92110107 16.27862793 5.27970215 17.00170898 5.64916992 C31.03019362 13.06647368 37.77178702 23.63639447 42.625 38.4375 C42.89006348 39.31438477 43.15512695 40.19126953 43.42822266 41.09472656 C45.02468203 46.14676374 46.23760154 49.17484837 51 52 C61.78260269 57.35914647 75.27732263 57.27463871 87.0715332 57.48291016 C92.08314009 57.63711345 95.68028025 58.18018294 100 61 C102.4747329 64.71209935 102.54216578 67.69655916 102 72 C100.8125 74.625 100.8125 74.625 99 77 C98.38125 77.969375 97.7625 78.93875 97.125 79.9375 C91.4692272 86.57017902 80.50744893 90.09815029 72 91 C68.65807095 91.13179438 65.34175629 91.12557748 62 91 C62 90.67 62 90.34 62 90 C63.02738281 89.82984375 64.05476563 89.6596875 65.11328125 89.484375 C80.69681886 86.97524384 80.69681886 86.97524384 94 79 C94.66 79 95.32 79 96 79 C96.68620031 77.67661368 97.34786461 76.34050052 98 75 C98.391875 74.236875 98.78375 73.47375 99.1875 72.6875 C100.31086046 68.97176926 100.16589547 66.70343268 99 63 C93.01049511 59.46224299 87.25681638 59.57463292 80.4375 59.5 C54.14284167 58.77622084 54.14284167 58.77622084 46 51 C42.7736223 46.75122178 41.09006235 42.77761261 39.5625 37.6875 C34.99326828 23.22150681 28.29117946 14.42090853 15 7 C10.142831 4.55623685 5.200202 2.60006215 0 1 C0 0.67 0 0.34 0 0 Z " fill="#3507C4" transform="translate(236,102)"/>
<path d="M0 0 C3.92360501 0.6244217 6.48225588 2.5347657 9.6875 4.8125 C10.25073975 5.20920898 10.81397949 5.60591797 11.39428711 6.01464844 C13.91880879 7.79553644 16.4311559 9.59329504 18.94433594 11.39013672 C39.38775814 25.9961725 60.4172058 40.21770621 82.8125 51.6875 C83.43995117 52.01468018 84.06740234 52.34186035 84.71386719 52.67895508 C87.80321525 54.21068025 90.32772601 55.04526226 93.76171875 55.51953125 C97.3119505 56.04628457 97.74457142 56.4533485 100 59 C107.62554505 63.00069112 107.62554505 63.00069112 116 64.0625 C119 64 119 64 121.4375 66 C121.953125 66.66 122.46875 67.32 123 68 C116.47782562 68.51277785 111.37365944 66.74116025 105.3125 64.4375 C104.27448242 64.04473877 103.23646484 63.65197754 102.16699219 63.24731445 C88.84498438 58.00377693 76.4159945 51.07011451 64 44 C63.05576172 43.46439453 62.11152344 42.92878906 61.13867188 42.37695312 C48.22741526 34.99502054 36.07136131 26.67270448 24 18 C22.66188761 17.04497116 21.32337443 16.09050352 19.984375 15.13671875 C17.67915064 13.49391169 15.3773967 11.84643702 13.078125 10.1953125 C9.31446138 7.51107525 5.51214543 4.88530837 1.6953125 2.27734375 C1.13585937 1.85582031 0.57640625 1.43429687 0 1 C0 0.67 0 0.34 0 0 Z " fill="#380DA6" transform="translate(156,359)"/>
<path d="M0 0 C4.11488657 1.37162886 5.87945856 4.24050121 8.4375 7.5625 C8.93032471 8.19639648 9.42314941 8.83029297 9.9309082 9.48339844 C18 20.04784911 18 20.04784911 18 25 C18.66 25.33 19.32 25.66 20 26 C20.33 26.99 20.66 27.98 21 29 C20.67 29.66 20.34 30.32 20 31 C20.66 31 21.32 31 22 31 C25.15934552 61.16922899 25.15934552 61.16922899 21 72 C20.67 73.19625 20.34 74.3925 20 75.625 C17.14761083 85.25181345 12.01654889 92.39923591 5.9609375 100.2578125 C3.87110644 102.8956794 3.87110644 102.8956794 3 106 C1.68 106 0.36 106 -1 106 C0.42701475 102.74032165 2.19448734 100.64250198 4.6875 98.125 C17.87098511 83.50592668 22.19876209 62.50365054 21.22216797 43.30810547 C19.74795265 27.99246634 12.28368506 14.85695721 1.72265625 3.9609375 C0 2 0 2 0 0 Z " fill="#1F0199" transform="translate(272,238)"/>
<path d="M0 0 C0 3.99711412 -1.32141544 5.1042329 -4 8 C-4.763125 8.45375 -5.52625 8.9075 -6.3125 9.375 C-11.19555478 12.32754475 -14.93231017 16.38228813 -18.0625 21.125 C-20.29779998 24.44189675 -22.93769265 26.44807721 -26 29 C-27.39300182 30.95890881 -28.72245446 32.9639118 -30 35 C-30.93023119 36.21393806 -31.86839193 37.42182269 -32.8125 38.625 C-38.02598473 45.52324951 -42.33442435 52.76945063 -45 61 C-46.5 62.875 -46.5 62.875 -48 64 C-48.66 64 -49.32 64 -50 64 C-44.46620416 45.84914964 -32.01453255 30.40822668 -19 17 C-18.52884766 16.50838379 -18.05769531 16.01676758 -17.57226562 15.51025391 C-12.09588899 9.80787401 -6.56166842 4.45591809 0 0 Z " fill="#872EF1" transform="translate(119,39)"/>
<path d="M0 0 C0.66 0.66 1.32 1.32 2 2 C1.28199219 2.42925781 0.56398437 2.85851562 -0.17578125 3.30078125 C-11.37981282 10.04179609 -21.70612702 16.86086515 -30.2109375 26.921875 C-32 29 -32 29 -34.1171875 31.09375 C-36.20587196 33.20843468 -37.56112096 35.41001773 -39 38 C-37.515 37.505 -37.515 37.505 -36 37 C-33.8125 38.4375 -33.8125 38.4375 -32 40 C-33.74468372 40.70088156 -35.49601161 41.38524009 -37.25 42.0625 C-38.22453125 42.44535156 -39.1990625 42.82820313 -40.203125 43.22265625 C-43.04007395 44.01113787 -44.29409552 44.02437812 -47 43 C-44.94898481 38.35822878 -42.57629504 35.54450575 -39 32 C-37.64882003 30.30574699 -36.31581283 28.59686444 -35 26.875 C-25.50601471 15.21901806 -13.39640243 6.69820122 0 0 Z " fill="#7126E8" transform="translate(47,273)"/>
<path d="M0 0 C0.66 0.66 1.32 1.32 2 2 C1.38511719 2.81791016 1.38511719 2.81791016 0.7578125 3.65234375 C-3.08357053 9.02844201 -5.0568063 13.48855435 -6 20 C-6.17660156 20.94101563 -6.35320312 21.88203125 -6.53515625 22.8515625 C-7.0256153 26.17349525 -7.13279679 29.33098203 -7.125 32.6875 C-7.12757813 33.80511719 -7.13015625 34.92273438 -7.1328125 36.07421875 C-7.13046095 39.06342108 -7.13046095 39.06342108 -6 42 C-5.77991948 43.72532263 -5.59496906 45.45534033 -5.4375 47.1875 C-5.35371094 48.08855469 -5.26992187 48.98960937 -5.18359375 49.91796875 C-5.12300781 50.60503906 -5.06242188 51.29210937 -5 52 C-4.34 52 -3.68 52 -3 52 C-2.54427083 54.01822917 -2.08854167 56.03645833 -1.6328125 58.0546875 C-1.09525572 60.20719964 -1.09525572 60.20719964 1 62 C1.74172865 63.61831705 2.47263434 65.24283413 3.13671875 66.89453125 C3.74128642 68.36901982 4.39428026 69.82414539 5.08203125 71.26171875 C8.1302396 77.95054344 8.45100189 83.70880285 8 91 C7.67 91 7.34 91 7 91 C6.92523438 90.12859375 6.85046875 89.2571875 6.7734375 88.359375 C5.78464422 79.40207121 3.42001843 72.79490935 -1 65 C-9.58858947 49.35821135 -11.87056727 31.4179734 -7.625 13.9375 C-7.13055645 12.27686888 -6.59256688 10.62819981 -6 9 C-5.52046875 7.68128906 -5.52046875 7.68128906 -5.03125 6.3359375 C-3.81581253 3.58278746 -2.22093726 1.99884353 0 0 Z " fill="#D55DFD" transform="translate(161,138)"/>
<path d="M0 0 C0.99 0.495 0.99 0.495 2 1 C-3.97902734 10.93941201 -10.71435471 19.86500281 -19 28 C-19.721875 28.7425 -20.44375 29.485 -21.1875 30.25 C-22.5796875 31.61125 -22.5796875 31.61125 -24 33 C-24.6290625 33.63679688 -25.258125 34.27359375 -25.90625 34.9296875 C-35.56737819 44.22686908 -47.76477314 51.56650678 -60 57 C-60.99 56.67 -61.98 56.34 -63 56 C-61.18078818 53.79779622 -60.29725758 53.05800148 -57.4375 52.5 C-54.64137117 52.2243063 -54.64137117 52.2243063 -53 49 C-52.030625 48.773125 -51.06125 48.54625 -50.0625 48.3125 C-44.17767531 46.82606395 -39.68858211 42.6775671 -35 39 C-34.06414062 38.27039063 -33.12828125 37.54078125 -32.1640625 36.7890625 C-19.70968452 26.84649184 -7.22533745 14.45067491 0 0 Z " fill="#3512A2" transform="translate(437,368)"/>
<path d="M0 0 C0 0.33 0 0.66 0 1 C-0.57443848 1.07516846 -1.14887695 1.15033691 -1.74072266 1.2277832 C-4.3704263 1.57828672 -6.99758539 1.94524664 -9.625 2.3125 C-10.52863281 2.43044922 -11.43226563 2.54839844 -12.36328125 2.66992188 C-20.7837925 3.8684618 -27.14135086 6.72507842 -33 13 C-35.78325986 18.10264307 -35.39808516 23.48847353 -34 29 C-31.46174527 34.45139015 -28.35669464 38.86066757 -24 43 C-24.33 43.66 -24.66 44.32 -25 45 C-26.27596932 43.60886005 -27.54554648 42.21185587 -28.8125 40.8125 C-29.52019531 40.03519531 -30.22789062 39.25789063 -30.95703125 38.45703125 C-36.21649897 32.1315911 -37.4232236 26.90992526 -37.34765625 18.82421875 C-36.65485647 13.19619357 -33.59061125 9.59061125 -29.6875 5.6875 C-20.43500366 -0.122207 -10.61753022 -0.17565767 0 0 Z " fill="#2A04B3" transform="translate(296,193)"/>
<path d="M0 0 C3.92360501 0.6244217 6.48225588 2.5347657 9.6875 4.8125 C10.25073975 5.20920898 10.81397949 5.60591797 11.39428711 6.01464844 C13.91880879 7.79553644 16.4311559 9.59329504 18.94433594 11.39013672 C20.98195083 12.84593388 23.02151328 14.29893382 25.0625 15.75 C25.75956055 16.24588623 26.45662109 16.74177246 27.17480469 17.25268555 C33.85102384 21.96482632 40.6915235 26.41140895 47.57641602 30.81152344 C48.38522217 31.33004883 49.19402832 31.84857422 50.02734375 32.3828125 C50.74656006 32.84059082 51.46577637 33.29836914 52.20678711 33.77001953 C54 35 54 35 56 37 C55.01 37.495 55.01 37.495 54 38 C51.4950788 36.64062203 49.13969949 35.22981594 46.75 33.6875 C46.03344238 33.23181641 45.31688477 32.77613281 44.57861328 32.30664062 C38.14038272 28.17275357 31.91303159 23.7738426 25.73535156 19.26318359 C22.75433124 17.0932625 19.7512933 14.95424311 16.75 12.8125 C16.17217773 12.3987915 15.59435547 11.98508301 14.99902344 11.55883789 C10.60006939 8.41286976 6.16070128 5.32845344 1.6953125 2.27734375 C1.13585937 1.85582031 0.57640625 1.43429687 0 1 C0 0.67 0 0.34 0 0 Z " fill="#3E13B1" transform="translate(156,359)"/>
<path d="M0 0 C-0.5625 1.8125 -0.5625 1.8125 -2 4 C-3.68325279 4.80925615 -5.37519122 5.61006744 -7.12109375 6.2734375 C-9.27872702 7.07106273 -9.27872702 7.07106273 -12.3125 8.6875 C-15 10 -15 10 -17 10 C-17.33 10.99 -17.66 11.98 -18 13 C-20.875 14.125 -20.875 14.125 -24 15 C-24.99 15.33 -25.98 15.66 -27 16 C-27 16.66 -27 17.32 -27 18 C-29.1875 19.5078125 -29.1875 19.5078125 -32 21.125 C-32.928125 21.66382812 -33.85625 22.20265625 -34.8125 22.7578125 C-35.534375 23.16773437 -36.25625 23.57765625 -37 24 C-37.33 23.01 -37.66 22.02 -38 21 C-32.02911368 16.56951433 -25.8297854 12.59848878 -19.4375 8.8125 C-18.74213135 8.39693848 -18.0467627 7.98137695 -17.33032227 7.55322266 C-4.43910639 0 -4.43910639 0 0 0 Z " fill="#8130EF" transform="translate(158,17)"/>
<path d="M0 0 C-0.99 0.556875 -1.98 1.11375 -3 1.6875 C-15.00135688 8.57312698 -24.00423768 15.91298093 -32.03515625 27.37890625 C-33.86659604 29.82203965 -35.78605218 31.90439237 -38 34 C-36.60821505 28.81815661 -34.35383082 25.30465565 -31.0625 21.1875 C-30.57595947 20.57583984 -30.08941895 19.96417969 -29.58813477 19.33398438 C-23.99033762 12.49813494 -9.74075514 -3.68329238 0 0 Z " fill="#DD67FD" transform="translate(196,108)"/>
<path d="M0 0 C2.29554336 2.29554336 2.31984545 2.90246265 2.6328125 6.015625 C2.71684326 6.84449219 2.80087402 7.67335937 2.88745117 8.52734375 C2.96584229 9.42582031 3.0442334 10.32429687 3.125 11.25 C3.20919189 12.17425781 3.29338379 13.09851563 3.38012695 14.05078125 C3.96004902 21.03569876 4.18160721 27.99229555 4.1875 35 C4.18830566 35.92458008 4.18911133 36.84916016 4.18994141 37.80175781 C4.15505352 41.98675303 4.06192143 45.92222171 3 50 C2.67 50 2.34 50 2 50 C1.71229729 44.32590568 1.42757172 38.65167235 1.14550781 32.97729492 C1.04930498 31.05017137 0.95231325 29.12308701 0.85449219 27.19604492 C0.71337752 24.41335016 0.57517616 21.63052301 0.4375 18.84765625 C0.39375244 17.99728287 0.35000488 17.14690948 0.30493164 16.27076721 C0.03980357 10.84014286 -0.03827316 5.43718148 0 0 Z " fill="#4119B0" transform="translate(402,149)"/>
<path d="M0 0 C0.66 0.33 1.32 0.66 2 1 C-7.01956346 9.61235969 -18.16477028 19.54257582 -30 24 C-30.99 23.67 -31.98 23.34 -33 23 C-30.39907118 21.3490067 -27.7937256 19.70511682 -25.1875 18.0625 C-24.44951172 17.59392578 -23.71152344 17.12535156 -22.95117188 16.64257812 C-22.23896484 16.19462891 -21.52675781 15.74667969 -20.79296875 15.28515625 C-20.1383667 14.87144775 -19.48376465 14.45773926 -18.80932617 14.03149414 C-17 13 -17 13 -14 12 C-13.67 11.01 -13.34 10.02 -13 9 C-10.13149298 7.06181958 -7.11650396 5.50053894 -4 4 C-4 3.34 -4 2.68 -4 2 C-2.125 0.9375 -2.125 0.9375 0 0 Z " fill="#2E0A9C" transform="translate(340,331)"/>
<path d="M0 0 C0.33 0.66 0.66 1.32 1 2 C-0.21484375 4.3828125 -0.21484375 4.3828125 -1.9375 7.125 C-2.50339844 8.03507812 -3.06929687 8.94515625 -3.65234375 9.8828125 C-4.09707031 10.58148438 -4.54179687 11.28015625 -5 12 C-4.01 11.67 -3.02 11.34 -2 11 C0.1875 12.4375 0.1875 12.4375 2 14 C0.25531628 14.70088156 -1.49601161 15.38524009 -3.25 16.0625 C-4.22453125 16.44535156 -5.1990625 16.82820313 -6.203125 17.22265625 C-9.04007395 18.01113787 -10.29409552 18.02437812 -13 17 C-10.95727893 12.37699968 -8.64227533 9.46883365 -5 6 C-3.2867339 4.0346457 -1.64628055 2.02257324 0 0 Z " fill="#7328E4" transform="translate(13,299)"/>
<path d="M0 0 C0.66 0 1.32 0 2 0 C2.45572917 2.01822917 2.91145833 4.03645833 3.3671875 6.0546875 C3.90474428 8.20719964 3.90474428 8.20719964 6 10 C6.74172865 11.61831705 7.47263434 13.24283413 8.13671875 14.89453125 C8.74128642 16.36901982 9.39428026 17.82414539 10.08203125 19.26171875 C13.1302396 25.95054344 13.45100189 31.70880285 13 39 C12.67 39 12.34 39 12 39 C11.88785156 37.69289063 11.88785156 37.69289063 11.7734375 36.359375 C10.78422152 27.398242 8.41134513 20.80054932 4 13 C3.00724524 11.15307299 2.0270782 9.29929759 1.0625 7.4375 C0.64097656 6.65246094 0.21945313 5.86742187 -0.21484375 5.05859375 C-1 3 -1 3 0 0 Z " fill="#BA4AFC" transform="translate(156,190)"/>
<path d="M0 0 C4.11488657 1.37162886 5.87945856 4.24050121 8.4375 7.5625 C8.93032471 8.19639648 9.42314941 8.83029297 9.9309082 9.48339844 C18 20.04784911 18 20.04784911 18 25 C18.66 25.33 19.32 25.66 20 26 C20.33 26.99 20.66 27.98 21 29 C20.67 29.66 20.34 30.32 20 31 C20.66 31 21.32 31 22 31 C22 31.66 22 32.32 22 33 C21.01 33 20.02 33 19 33 C18.74347656 32.21238281 18.48695313 31.42476563 18.22265625 30.61328125 C14.69190679 20.56788294 9.86927285 11.81456192 2.21875 4.25 C0 2 0 2 0 0 Z " fill="#2704AB" transform="translate(272,238)"/>
<path d="M0 0 C5.17452119 0.67224549 6.99426238 2.50109852 10.2265625 6.41796875 C14.77784969 13.0444023 18.4810009 21.06744916 20 29 C19.53515625 31.18359375 19.53515625 31.18359375 19 33 C18.63648438 31.87722656 18.27296875 30.75445312 17.8984375 29.59765625 C14.25529644 18.6210587 14.25529644 18.6210587 8.296875 8.76171875 C7 7 7 7 5.9921875 4.84765625 C4.57841766 2.21492737 2.76345225 1.87266913 0 1 C0 0.67 0 0.34 0 0 Z " fill="#A33AFB" transform="translate(258,115)"/>
<path d="M0 0 C0 3.99711412 -1.32141544 5.1042329 -4 8 C-4.7425 8.42925781 -5.485 8.85851563 -6.25 9.30078125 C-9.65978967 11.40768254 -12.40363786 13.94829203 -15.3125 16.6875 C-15.86228516 17.19861328 -16.41207031 17.70972656 -16.97851562 18.23632812 C-18.3226638 19.48697034 -19.661846 20.74294624 -21 22 C-21 18.12114886 -19.42349216 17.06137415 -16.78198242 14.41674805 C-16.19392822 13.84609619 -15.60587402 13.27544434 -15 12.6875 C-14.41001221 12.10589111 -13.82002441 11.52428223 -13.2121582 10.92504883 C-9.05545567 6.88196396 -4.78809998 3.28595097 0 0 Z " fill="#7D2DEC" transform="translate(119,39)"/>
<path d="M0 0 C0.66 0.33 1.32 0.66 2 1 C-0.64 6.28 -3.28 11.56 -6 17 C-6.33 16.34 -6.66 15.68 -7 15 C-6.07645234 12.86873616 -4.94517969 10.90190051 -3.8125 8.875 C-3.544375 8.25625 -3.27625 7.6375 -3 7 C-3.33 6.34 -3.66 5.68 -4 5 C-4.69867188 5.30035156 -5.39734375 5.60070312 -6.1171875 5.91015625 C-7.48230469 6.48056641 -7.48230469 6.48056641 -8.875 7.0625 C-9.77992188 7.44535156 -10.68484375 7.82820313 -11.6171875 8.22265625 C-14 9 -14 9 -16 8 C-13.37964982 6.63610475 -10.75443001 5.28367827 -8.125 3.9375 C-7.37863281 3.54755859 -6.63226563 3.15761719 -5.86328125 2.75585938 C-4.79013672 2.20961914 -4.79013672 2.20961914 -3.6953125 1.65234375 C-3.03547363 1.31195068 -2.37563477 0.97155762 -1.69580078 0.62084961 C-1.13618652 0.41596924 -0.57657227 0.21108887 0 0 Z " fill="#421BB1" transform="translate(446,350)"/>
<path d="M0 0 C9.57 0 19.14 0 29 0 C28.67 0.99 28.34 1.98 28 3 C26.02 3 24.04 3 22 3 C22 2.34 22 1.68 22 1 C20.18706911 1.14037521 18.3746557 1.28744889 16.5625 1.4375 C15.55316406 1.51871094 14.54382813 1.59992188 13.50390625 1.68359375 C11.06359221 1.73211468 11.06359221 1.73211468 10 3 C5.06892356 3.43831791 4.19184819 3.14388614 0 0 Z " fill="#631FD6" transform="translate(80,262)"/>
<path d="M0 0 C0.33 0.66 0.66 1.32 1 2 C0.328125 3.8828125 0.328125 3.8828125 -0.75 6.125 C-2.18165428 9.17525998 -3.45998288 12.19126072 -4.5625 15.375 C-5.84893494 18.61905332 -6.43747164 19.87434034 -9 22 C-9.66 22 -10.32 22 -11 22 C-9.52403189 17.03116495 -7.40510877 12.71218514 -4.9375 8.1875 C-4.57333984 7.50751953 -4.20917969 6.82753906 -3.83398438 6.12695312 C-1.1489279 1.1489279 -1.1489279 1.1489279 0 0 Z " fill="#7D2DEB" transform="translate(80,81)"/>
<path d="M0 0 C0.99 0 1.98 0 3 0 C2.82597656 1.14339844 2.65195312 2.28679687 2.47265625 3.46484375 C1.91867701 7.90351692 2.08735444 12.11524898 2.4375 16.5625 C2.81393032 21.72563688 3.06124221 26.82163104 3 32 C2.67 32 2.34 32 2 32 C1.09586327 28.16275828 0.89423102 24.62497726 0.9375 20.6875 C0.94652344 19.61886719 0.95554688 18.55023438 0.96484375 17.44921875 C0.98224609 16.23685547 0.98224609 16.23685547 1 15 C0.34 14.67 -0.32 14.34 -1 14 C-0.67 9.38 -0.34 4.76 0 0 Z " fill="#8423F9" transform="translate(59,136)"/>
<path d="M0 0 C7.19634147 0.60985945 13.16540087 2.73895043 19.5625 5.9375 C20.26503906 6.28554687 20.96757812 6.63359375 21.69140625 6.9921875 C25.0313364 8.72086228 26.8791765 9.81876475 29 13 C26.09210673 11.94258427 23.63423042 10.77139401 21 9.125 C14.40550567 5.24674012 6.47470066 3.37545607 -1 2 C-0.67 1.34 -0.34 0.68 0 0 Z " fill="#C24FFD" transform="translate(231,102)"/>
<path d="M0 0 C0.66 0 1.32 0 2 0 C1.67 3.3 1.34 6.6 1 10 C-4.13940726 11.24591691 -8.6787418 12.27288504 -14 12 C-12.4375 10 -12.4375 10 -10 8 C-6.375 7.8125 -6.375 7.8125 -3 8 C-2.34 7.67 -1.68 7.34 -1 7 C-0.59270772 4.67843403 -0.25561323 2.3431213 0 0 Z " fill="#3E11BC" transform="translate(166,223)"/>
<path d="M0 0 C0.99 0.66 1.98 1.32 3 2 C2.566875 2.969375 2.13375 3.93875 1.6875 4.9375 C-0.14808325 9.20304583 -1.58673108 13.57977593 -3 18 C-3.66 17.01 -4.32 16.02 -5 15 C-4.32644839 12.32043601 -3.57760397 9.88886074 -2.625 7.3125 C-2.3775 6.61060547 -2.13 5.90871094 -1.875 5.18554688 C-1.26203025 3.45272855 -0.63256672 1.72576088 0 0 Z " fill="#7B2EED" transform="translate(68,103)"/>
<path d="M0 0 C-2.47559186 3.71338778 -3.76117442 3.77826732 -8 4.8125 C-9.60875 5.22435547 -9.60875 5.22435547 -11.25 5.64453125 C-12.61125 5.82048828 -12.61125 5.82048828 -14 6 C-14.66 5.34 -15.32 4.68 -16 4 C-14.08959948 3.1319092 -12.17139263 2.28098217 -10.25 1.4375 C-9.18265625 0.96183594 -8.1153125 0.48617188 -7.015625 -0.00390625 C-4.01630163 -0.9946154 -2.86578759 -1.16161779 0 0 Z " fill="#6E29E7" transform="translate(64,268)"/>
<path d="M0 0 C0.99 0.66 1.98 1.32 3 2 C0.69 4.64 -1.62 7.28 -4 10 C-4.66 9.67 -5.32 9.34 -6 9 C-4.68775452 5.06326356 -3.08089673 2.77280706 0 0 Z " fill="#7927F0" transform="translate(19,292)"/>
<path d="M0 0 C1.3303125 0.00773437 1.3303125 0.00773437 2.6875 0.015625 C3.574375 0.01046875 4.46125 0.0053125 5.375 0 C7.6875 0.265625 7.6875 0.265625 9.6875 2.265625 C12.34287372 2.83082503 14.97894713 3.00350698 17.6875 3.265625 C17.6875 3.595625 17.6875 3.925625 17.6875 4.265625 C10.13612068 4.56634365 3.09893564 3.69188066 -4.3125 2.265625 C-2.3125 0.265625 -2.3125 0.265625 0 0 Z " fill="#35139E" transform="translate(299.3125,430.734375)"/>
<path d="M0 0 C4.39081764 1.5214886 8.02875969 3.85939639 11.8125 6.5 C12.7087207 7.10521484 12.7087207 7.10521484 13.62304688 7.72265625 C15.12143611 8.76039782 16.56615614 9.87475797 18 11 C18 11.66 18 12.32 18 13 C14.04525862 11.1624434 10.42214367 8.83614018 6.75 6.5 C6.1003125 6.09652344 5.450625 5.69304687 4.78125 5.27734375 C3.15124981 4.23975959 1.57060934 3.12546338 0 2 C0 1.34 0 0.68 0 0 Z " fill="#4A17BD" transform="translate(121,333)"/>
<path d="M0 0 C-3.00440021 2.00293347 -4.70993945 2.49271626 -8.1875 3.125 C-9.08855469 3.29257813 -9.98960937 3.46015625 -10.91796875 3.6328125 C-11.60503906 3.75398437 -12.29210937 3.87515625 -13 4 C-13 3.01 -13 2.02 -13 1 C-11.59054634 0.43983252 -10.1719969 -0.09748502 -8.75 -0.625 C-7.96109375 -0.92664063 -7.1721875 -1.22828125 -6.359375 -1.5390625 C-3.50082285 -2.09752136 -2.41040161 -1.53690745 0 0 Z " fill="#7F30EF" transform="translate(182,11)"/>
<path d="M0 0 C2.625 0.9375 2.625 0.9375 5 2 C2.60939149 3.59373901 0.69171821 4.65297076 -1.9375 5.6875 C-2.60652344 5.95949219 -3.27554687 6.23148437 -3.96484375 6.51171875 C-6.32830338 7.0787676 -7.7192799 6.76024003 -10 6 C-7 4 -7 4 -3 4 C-2.67 3.01 -2.34 2.02 -2 1 C-1.34 0.67 -0.68 0.34 0 0 Z " fill="#6A2ED4" transform="translate(10,310)"/>
<path d="M0 0 C0.99 0.66 1.98 1.32 3 2 C1.515 7.445 1.515 7.445 0 13 C-0.66 13 -1.32 13 -2 13 C-1.85769192 11.58297487 -1.71099254 10.1663904 -1.5625 8.75 C-1.48128906 7.96109375 -1.40007813 7.1721875 -1.31640625 6.359375 C-1.02365007 4.17635361 -0.57935581 2.1226818 0 0 Z " fill="#762EE9" transform="translate(62,121)"/>
<path d="M0 0 C0.66 1.32 1.32 2.64 2 4 C-2.625 8.875 -2.625 8.875 -6 10 C-4.34832443 6.4213696 -2.21713508 3.25179812 0 0 Z " fill="#340CB2" transform="translate(366,300)"/>
<path d="M0 0 C0.66 0.33 1.32 0.66 2 1 C2.4140625 3.94140625 2.4140625 3.94140625 2.625 7.5625 C2.69976562 8.76003906 2.77453125 9.95757812 2.8515625 11.19140625 C2.90054688 12.11824219 2.94953125 13.04507813 3 14 C0.49360113 11.49360113 0.4120229 9.89489895 -0.1875 6.4375 C-0.36667969 5.44621094 -0.54585937 4.45492187 -0.73046875 3.43359375 C-0.81941406 2.63050781 -0.90835938 1.82742187 -1 1 C-0.67 0.67 -0.34 0.34 0 0 Z " fill="#C753FD" transform="translate(153,177)"/>
<path d="M0 0 C0.33 0.66 0.66 1.32 1 2 C-1.31 4.64 -3.62 7.28 -6 10 C-6 5.46153846 -6 5.46153846 -5 3 C-2.4375 1.25 -2.4375 1.25 0 0 Z " fill="#32099A" transform="translate(362,308)"/>
<path d="M0 0 C3.2910253 1.09700843 3.96023288 1.87619858 6.0625 4.5 C8.17721767 7.18106401 8.17721767 7.18106401 11 9 C10.67 9.99 10.34 10.98 10 12 C8.32737283 10.38113585 6.66204463 8.7547271 5 7.125 C4.071875 6.22007812 3.14375 5.31515625 2.1875 4.3828125 C0 2 0 2 0 0 Z " fill="#5721C8" transform="translate(77,205)"/>
<path d="M0 0 C0.99 0.33 1.98 0.66 3 1 C-0.96 4.465 -0.96 4.465 -5 8 C-5.66 7.34 -6.32 6.68 -7 6 C-5.90716423 4.96704564 -4.80029421 3.94892165 -3.6875 2.9375 C-3.07261719 2.36902344 -2.45773438 1.80054687 -1.82421875 1.21484375 C-0.92123047 0.61349609 -0.92123047 0.61349609 0 0 Z " fill="#D05EFD" transform="translate(176,118)"/>
<path d="M0 0 C0.66 0.33 1.32 0.66 2 1 C-0.85276137 3.93200474 -3.65079784 6.64315404 -7 9 C-7.66 8.67 -8.32 8.34 -9 8 C-6.03 5.36 -3.06 2.72 0 0 Z " fill="#6825DF" transform="translate(29,284)"/>
<path d="M0 0 C2.475 0.99 2.475 0.99 5 2 C4.67 4.97 4.34 7.94 4 11 C1.54176828 7.31265242 0.98757384 4.30300029 0 0 Z " fill="#6925DD" transform="translate(61,174)"/>
<path d="M0 0 C4.29 0.33 8.58 0.66 13 1 C11.515 2.485 11.515 2.485 10 4 C9.34 4 8.68 4 8 4 C8 3.34 8 2.68 8 2 C7.4225 2.226875 6.845 2.45375 6.25 2.6875 C4 3 4 3 0 0 Z " fill="#812EF2" transform="translate(208,3)"/>
<path d="M0 0 C0 0.66 0 1.32 0 2 C-6.4 4.21538462 -6.4 4.21538462 -9.4375 3.125 C-9.953125 2.75375 -10.46875 2.3825 -11 2 C-7.12315913 0.80712589 -4.08378077 0 0 0 Z " fill="#6A28E1" transform="translate(74,264)"/>
<path d="M0 0 C0.99 0 1.98 0 3 0 C2.44687265 4.02992782 1.8441938 8.02022924 1 12 C0.67 12 0.34 12 0 12 C0 8.04 0 4.08 0 0 Z " fill="#722BE6" transform="translate(59,136)"/>
<path d="M0 0 C-1.51671964 4.55015893 -5.16891053 6.50057264 -9 9 C-7.45665977 5.21180126 -4.44676575 0 0 0 Z " fill="#7527E6" transform="translate(106,52)"/>
<path d="M0 0 C0 0.33 0 0.66 0 1 C-1.2065625 1.185625 -1.2065625 1.185625 -2.4375 1.375 C-3.283125 1.58125 -4.12875 1.7875 -5 2 C-5.33 2.66 -5.66 3.32 -6 4 C-7.32 4 -8.64 4 -10 4 C-10 3.01 -10 2.02 -10 1 C-6.52674819 -0.1577506 -3.63932552 -0.06866652 0 0 Z " fill="#772CEB" transform="translate(245,3)"/>
<path d="M0 0 C5.94 0.99 5.94 0.99 12 2 C12 2.33 12 2.66 12 3 C8.7 3.33 5.4 3.66 2 4 C1.34 2.68 0.68 1.36 0 0 Z " fill="#913AF1" transform="translate(234,167)"/>
<path d="M0 0 C3.55780196 0.60990891 6.6828589 1.5783681 10 3 C6.18510326 4.46726798 3.70988378 3.43336419 0 2 C0 1.34 0 0.68 0 0 Z " fill="#310C98" transform="translate(263,422)"/>
<path d="M0 0 C0.66 0.66 1.32 1.32 2 2 C1.34 3.32 0.68 4.64 0 6 C-1.32 6 -2.64 6 -4 6 C-2.84826645 3.53199953 -1.95216435 1.95216435 0 0 Z " fill="#2A06A5" transform="translate(275,338)"/>
<path d="M0 0 C-0.33 0.99 -0.66 1.98 -1 3 C-2.98 3 -4.96 3 -7 3 C-7 2.34 -7 1.68 -7 1 C-4.53721199 -0.231394 -2.7204945 -0.07159196 0 0 Z " fill="#6822E2" transform="translate(109,262)"/>
<path d="M0 0 C1.485 0.99 1.485 0.99 3 2 C2.01 2 1.02 2 0 2 C0 1.34 0 0.68 0 0 Z " fill="#5415FF" transform="translate(100,227)"/>
<path d="M0 0 C3 1 3 1 3 1 Z " fill="#5400FF" transform="translate(119,235)"/>
<path d="M0 0 C3 1 3 1 3 1 Z " fill="#B846FF" transform="translate(245,147)"/>
<path d="M0 0 C2 1 2 1 2 1 Z " fill="#3F00BF" transform="translate(205,395)"/>
<path d="M0 0 C2 1 2 1 2 1 Z " fill="#0000FF" transform="translate(411,361)"/>
<path d="M0 0 C2 1 2 1 2 1 Z " fill="#3F00BF" transform="translate(419,359)"/>
<path d="M0 0 C2 1 2 1 2 1 Z " fill="#946AFF" transform="translate(31,280)"/>
<path d="M0 0 C2 1 2 1 2 1 Z " fill="#3F00FF" transform="translate(135,238)"/>
<path d="M0 0 C2 1 2 1 2 1 Z " fill="#3F00FF" transform="translate(125,236)"/>
<path d="M0 0 C2 1 2 1 2 1 Z " fill="#BF3FFF" transform="translate(237,147)"/>
<path d="" fill="#7F007F" transform="translate(0,0)"/>
<path d="" fill="#0000FF" transform="translate(0,0)"/>
<path d="" fill="#0000FF" transform="translate(0,0)"/>
<path d="" fill="#5500AA" transform="translate(0,0)"/>
<path d="" fill="#0000FF" transform="translate(0,0)"/>
<path d="" fill="#0000FF" transform="translate(0,0)"/>
<path d="" fill="#0000FF" transform="translate(0,0)"/>
<path d="" fill="#0000FF" transform="translate(0,0)"/>
<path d="" fill="#0000FF" transform="translate(0,0)"/>
<path d="" fill="#0000FF" transform="translate(0,0)"/>
<path d="" fill="#0000FF" transform="translate(0,0)"/>
<path d="" fill="#0000FF" transform="translate(0,0)"/>
<path d="" fill="#7F007F" transform="translate(0,0)"/>
<path d="" fill="#0000FF" transform="translate(0,0)"/>
<path d="" fill="#6633CC" transform="translate(0,0)"/>
<path d="" fill="#552AAA" transform="translate(0,0)"/>
<path d="" fill="#5555AA" transform="translate(0,0)"/>
<path d="" fill="#7F007F" transform="translate(0,0)"/>
<path d="" fill="#0000FF" transform="translate(0,0)"/>
<path d="" fill="#0000FF" transform="translate(0,0)"/>
<path d="" fill="#7F00FF" transform="translate(0,0)"/>
<path d="" fill="#7F7FFF" transform="translate(0,0)"/>
<path d="" fill="#0000FF" transform="translate(0,0)"/>
<path d="" fill="#FF00FF" transform="translate(0,0)"/>
<path d="" fill="#FF00FF" transform="translate(0,0)"/>
<path d="" fill="#FF00FF" transform="translate(0,0)"/>
<path d="" fill="#0000FF" transform="translate(0,0)"/>
<path d="" fill="#7F7FFF" transform="translate(0,0)"/>
<path d="" fill="#FF00FF" transform="translate(0,0)"/>
<path d="" fill="#0000FF" transform="translate(0,0)"/>
<path d="" fill="#7F3FBF" transform="translate(0,0)"/>
<path d="" fill="#0000FF" transform="translate(0,0)"/>
<path d="" fill="#0000FF" transform="translate(0,0)"/>
<path d="" fill="#7F00FF" transform="translate(0,0)"/>
<path d="" fill="#0000FF" transform="translate(0,0)"/>
<path d="" fill="#0000FF" transform="translate(0,0)"/>
<path d="" fill="#0000FF" transform="translate(0,0)"/>
<path d="" fill="#FF00FF" transform="translate(0,0)"/>
<path d="" fill="#7F00FF" transform="translate(0,0)"/>
<path d="" fill="#0000FF" transform="translate(0,0)"/>
<path d="" fill="#0000FF" transform="translate(0,0)"/>
<path d="" fill="#FF00FF" transform="translate(0,0)"/>
<path d="" fill="#FF00FF" transform="translate(0,0)"/>
<path d="" fill="#7F7FFF" transform="translate(0,0)"/>
<path d="" fill="#0000FF" transform="translate(0,0)"/>
<path d="" fill="#0000FF" transform="translate(0,0)"/>
<path d="" fill="#0000FF" transform="translate(0,0)"/>
<path d="" fill="#0000FF" transform="translate(0,0)"/>
<path d="" fill="#0000FF" transform="translate(0,0)"/>
<path d="" fill="#0000FF" transform="translate(0,0)"/>
<path d="" fill="#5555AA" transform="translate(0,0)"/>
<path d="" fill="#7F00FF" transform="translate(0,0)"/>
<path d="" fill="#FF00FF" transform="translate(0,0)"/>
<path d="" fill="#0000FF" transform="translate(0,0)"/>
<path d="" fill="#7F7FFF" transform="translate(0,0)"/>
<path d="" fill="#0000FF" transform="translate(0,0)"/>
<path d="" fill="#7F00FF" transform="translate(0,0)"/>
<path d="" fill="#7F00FF" transform="translate(0,0)"/>
<path d="" fill="#FF00FF" transform="translate(0,0)"/>
<path d="" fill="#AA55FF" transform="translate(0,0)"/>
<path d="" fill="#FF00FF" transform="translate(0,0)"/>
<path d="" fill="#7F7FFF" transform="translate(0,0)"/>
<path d="" fill="#0000FF" transform="translate(0,0)"/>
<path d="" fill="#7F7FFF" transform="translate(0,0)"/>
<path d="" fill="#7F7FFF" transform="translate(0,0)"/>
<path d="" fill="#7F3FFF" transform="translate(0,0)"/>
<path d="" fill="#FF00FF" transform="translate(0,0)"/>
<path d="" fill="#FF00FF" transform="translate(0,0)"/>
</svg>
